<?xml version="1.0" encoding="utf-8"?>
<!-- Generator: Adobe Illustrator 16.0.0, SVG Export Plug-In . SVG Version: 6.00 Build 0)  -->
<!DOCTYPE svg PUBLIC "-//W3C//DTD SVG 1.1//EN" "http://www.w3.org/Graphics/SVG/1.1/DTD/svg11.dtd">
<svg version="1.1" id="Layer_1" xmlns="http://www.w3.org/2000/svg" xmlns:xlink="http://www.w3.org/1999/xlink" x="0px" y="0px"
	 width="595.28px" height="457.219px" viewBox="0 0 595.28 457.219" enable-background="new 0 0 595.28 457.219"
	 xml:space="preserve">
<path fill="#F94600" d="M500.235,58.268H85.933c-16.532,0-29.935,13.402-29.935,29.936v17.415h45.166v55.445
	c0.111-0.177,0.397-0.635,0.397-0.635L139,105.618h58.888l-56.843,73.157l58.04,95.582h-55.528l-35.785-63.111l-6.607,8.089v55.021
	H55.998v24.931c0,16.534,13.402,29.936,29.935,29.936h414.303c16.532,0,29.936-13.401,29.936-29.936V88.203
	C530.171,71.67,516.768,58.268,500.235,58.268z M281.419,235.403c10.713,0,21.67-2.431,27.316-4.688l6.728-2.691l7.586,39.251
	l-4.063,2.031c-6.807,3.403-22.129,7.377-42.917,7.377c-27.386,0-50.086-8.381-65.647-24.238
	c-14.683-14.963-22.444-35.755-22.444-60.132c0-27.145,9.32-50.006,26.953-66.114c16.334-14.922,39.285-23.14,64.628-23.14
	c19.642,0,34.56,4.122,41.367,7.65l4.224,2.19l-10.112,39.47l-6.394-2.68c-8.466-3.55-17.704-5.349-27.457-5.349
	c-27.563,0-44.02,17.15-44.02,45.88C237.167,218.935,253.297,235.403,281.419,235.403z"/>
<g>
	<path d="M54.261,358.023h9.726v19.193h0.193c0.966-1.674,1.997-3.22,2.963-4.766l9.854-14.427h12.044l-14.363,18.485l15.136,24.926
		H78.35l-10.627-18.743l-3.735,4.573v14.169h-9.726V358.023z"/>
	<path d="M104.752,390.292l-3.091,11.143H91.484l13.268-43.411h12.881l13.461,43.411h-10.563l-3.349-11.143H104.752z
		 M115.766,382.949l-2.705-9.21c-0.773-2.576-1.546-5.796-2.19-8.373h-0.129c-0.644,2.577-1.288,5.861-1.997,8.373l-2.576,9.21
		H115.766z"/>
	<path d="M137.21,391.322c2.641,1.353,6.699,2.705,10.885,2.705c4.508,0,6.891-1.868,6.891-4.702c0-2.705-2.061-4.251-7.278-6.119
		c-7.213-2.512-11.916-6.505-11.916-12.817c0-7.407,6.183-13.075,16.424-13.075c4.895,0,8.501,1.031,11.078,2.19l-2.189,7.922
		c-1.739-0.837-4.831-2.062-9.082-2.062s-6.312,1.933-6.312,4.187c0,2.77,2.447,3.994,8.051,6.119
		c7.665,2.833,11.271,6.827,11.271,12.946c0,7.278-5.604,13.461-17.519,13.461c-4.959,0-9.854-1.288-12.302-2.641L137.21,391.322z"
		/>
	<path d="M171.988,391.322c2.641,1.353,6.699,2.705,10.885,2.705c4.508,0,6.891-1.868,6.891-4.702c0-2.705-2.061-4.251-7.278-6.119
		c-7.213-2.512-11.916-6.505-11.916-12.817c0-7.407,6.183-13.075,16.424-13.075c4.895,0,8.501,1.031,11.078,2.19l-2.189,7.922
		c-1.739-0.837-4.831-2.062-9.082-2.062s-6.312,1.933-6.312,4.187c0,2.77,2.447,3.994,8.051,6.119
		c7.665,2.833,11.271,6.827,11.271,12.946c0,7.278-5.604,13.461-17.519,13.461c-4.959,0-9.854-1.288-12.302-2.641L171.988,391.322z"
		/>
	<path d="M216.297,358.023v43.411h-9.854v-43.411H216.297z"/>
	<path d="M250.625,383.078h-15.973v10.305h17.841v8.051h-27.695v-43.411h26.793v8.051h-16.939v9.017h15.973V383.078z"/>
	<path d="M259.188,358.603c3.156-0.515,7.857-0.901,13.075-0.901c6.44,0,10.949,0.966,14.041,3.414
		c2.577,2.061,3.994,5.088,3.994,9.081c0,5.539-3.929,9.339-7.665,10.692v0.193c3.027,1.224,4.702,4.122,5.796,8.115
		c1.353,4.895,2.705,10.563,3.542,12.237h-10.047c-0.708-1.224-1.739-4.766-3.027-10.112c-1.159-5.41-3.027-6.892-7.021-6.956
		h-2.962v17.068h-9.726V358.603z M268.914,377.281h3.864c4.895,0,7.793-2.447,7.793-6.248c0-3.993-2.705-5.99-7.214-6.054
		c-2.383,0-3.735,0.193-4.444,0.322V377.281z"/>
	<path d="M323.206,383.078h-15.974v10.305h17.842v8.051h-27.695v-43.411h26.793v8.051h-16.939v9.017h15.974V383.078z"/>
	<path d="M331.77,358.603c3.156-0.515,7.857-0.901,13.074-0.901c6.441,0,10.949,0.966,14.041,3.414
		c2.576,2.061,3.993,5.088,3.993,9.081c0,5.539-3.929,9.339-7.664,10.692v0.193c3.027,1.224,4.701,4.122,5.797,8.115
		c1.353,4.895,2.705,10.563,3.542,12.237h-10.048c-0.708-1.224-1.738-4.766-3.026-10.112c-1.16-5.41-3.027-6.892-7.021-6.956h-2.963
		v17.068h-9.726V358.603z M341.495,377.281h3.864c4.895,0,7.793-2.447,7.793-6.248c0-3.993-2.705-5.99-7.213-6.054
		c-2.384,0-3.736,0.193-4.444,0.322V377.281z"/>
	<path d="M401.585,400.21c-1.804,0.901-5.861,1.868-11.143,1.868c-15.007,0-22.736-9.339-22.736-21.705
		c0-14.814,10.563-23.058,23.702-23.058c5.088,0,8.953,1.031,10.691,1.932l-1.996,7.793c-1.997-0.837-4.767-1.61-8.244-1.61
		c-7.794,0-13.848,4.702-13.848,14.363c0,8.695,5.152,14.169,13.912,14.169c2.963,0,6.247-0.644,8.18-1.417L401.585,400.21z"/>
	<path d="M418.777,390.292l-3.092,11.143h-10.177l13.269-43.411h12.881l13.461,43.411h-10.563l-3.349-11.143H418.777z
		 M429.791,382.949l-2.706-9.21c-0.772-2.576-1.545-5.796-2.189-8.373h-0.129c-0.644,2.577-1.288,5.861-1.996,8.373l-2.576,9.21
		H429.791z"/>
	<path d="M450.913,358.603c3.156-0.515,7.857-0.901,13.074-0.901c6.441,0,10.949,0.966,14.041,3.414
		c2.576,2.061,3.993,5.088,3.993,9.081c0,5.539-3.929,9.339-7.664,10.692v0.193c3.027,1.224,4.701,4.122,5.797,8.115
		c1.353,4.895,2.705,10.563,3.542,12.237h-10.048c-0.708-1.224-1.738-4.766-3.026-10.112c-1.16-5.41-3.027-6.892-7.021-6.956h-2.963
		v17.068h-9.726V358.603z M460.639,377.281h3.864c4.895,0,7.793-2.447,7.793-6.248c0-3.993-2.705-5.99-7.213-6.054
		c-2.384,0-3.736,0.193-4.444,0.322V377.281z"/>
	<path d="M489.104,358.603c3.606-0.58,8.309-0.901,13.268-0.901c8.244,0,13.59,1.481,17.776,4.637
		c4.509,3.349,7.343,8.695,7.343,16.359c0,8.309-3.027,14.041-7.214,17.583c-4.572,3.8-11.528,5.603-20.03,5.603
		c-5.089,0-8.695-0.322-11.143-0.644V358.603z M498.958,394.027c0.837,0.193,2.189,0.193,3.413,0.193
		c8.889,0.064,14.686-4.83,14.686-15.2c0.064-9.017-5.218-13.783-13.655-13.783c-2.189,0-3.606,0.193-4.443,0.386V394.027z"/>
</g>
</svg>
